<svg width="64" height="52" viewBox="0 0 64 52" fill="none" xmlns="http://www.w3.org/2000/svg">
<path d="M2.40625 11.9043L2.83594 16.8887C3.36589 16.8887 3.95312 16.8672 4.59766 16.8242C5.25651 16.7669 5.8724 16.6452 6.44531 16.459C7.01823 16.2728 7.49805 16.0007 7.88477 15.6426C8.28581 15.2845 8.48633 14.7904 8.48633 14.1602C8.48633 13.6732 8.37891 13.2721 8.16406 12.957C7.94922 12.6276 7.66276 12.377 7.30469 12.2051C6.94661 12.0189 6.53841 11.89 6.08008 11.8184C5.63607 11.7467 5.17057 11.7109 4.68359 11.7109C4.25391 11.7109 3.83854 11.7324 3.4375 11.7754C3.03646 11.804 2.69271 11.847 2.40625 11.9043ZM2.87891 18.2207L3.39453 25.1816L2.01953 25.2676L0.988281 11.3887L1.67578 10.5723C2.16276 10.5293 2.64974 10.4935 3.13672 10.4648C3.6237 10.4362 4.10352 10.4219 4.57617 10.4219C5.32096 10.4219 6.00846 10.472 6.63867 10.5723C7.2832 10.6725 7.8418 10.8659 8.31445 11.1523C8.78711 11.4245 9.15951 11.8112 9.43164 12.3125C9.70378 12.7995 9.83984 13.4368 9.83984 14.2246C9.83984 15.1413 9.61068 15.8574 9.15234 16.373C8.70833 16.8887 8.14258 17.2826 7.45508 17.5547C6.76758 17.8125 6.01562 17.9844 5.19922 18.0703C4.38281 18.1419 3.60938 18.1921 2.87891 18.2207ZM12.2478 17.1895H15.5564L13.7087 12.334L12.2478 17.1895ZM10.2283 24.2363L8.76734 23.8926L13.1931 9.88477H14.1384L19.3377 23.9785L17.9627 24.3652L15.9431 18.5215H11.9041L10.2283 24.2363ZM21.7027 23.8066L18.9097 10.2715H20.5425L22.5191 21.3145L24.6675 11.1309L26.5581 11.2598L28.7066 20.7988L31.4995 9.8418L32.9605 9.9707L29.3941 24.2363H27.8902L25.5269 13.709L23.3355 23.8066H21.7027ZM40.3958 11.0449L39.7942 12.334C39.7226 12.248 39.5865 12.1549 39.386 12.0547C39.1855 11.9401 38.942 11.8398 38.6555 11.7539C38.3834 11.668 38.0826 11.5964 37.7532 11.5391C37.4238 11.4674 37.1015 11.4316 36.7864 11.4316C36.4713 11.4316 36.1705 11.4674 35.8841 11.5391C35.6119 11.5964 35.3684 11.6966 35.1536 11.8398C34.9387 11.9831 34.7669 12.1764 34.638 12.4199C34.5234 12.6634 34.4661 12.957 34.4661 13.3008C34.4661 13.7591 34.638 14.2174 34.9817 14.6758C35.3398 15.1198 35.8841 15.4707 36.6145 15.7285C37.5598 16.1009 38.2975 16.4948 38.8274 16.9102C39.3717 17.3255 39.7727 17.7409 40.0305 18.1562C40.3027 18.5716 40.4746 18.9798 40.5462 19.3809C40.6178 19.7819 40.6536 20.1543 40.6536 20.498C40.6106 21.6868 40.2311 22.6107 39.5149 23.2695C38.7988 23.9284 37.7389 24.2578 36.3352 24.2578C35.7623 24.2578 35.1321 24.1934 34.4446 24.0645C33.7714 23.9499 33.0338 23.7637 32.2317 23.5059L32.7044 22.002C33.1484 22.1738 33.6998 22.3385 34.3587 22.4961C35.0318 22.6393 35.6979 22.7109 36.3567 22.7109C36.7434 22.7109 37.1087 22.6751 37.4524 22.6035C37.7962 22.5319 38.097 22.4173 38.3548 22.2598C38.6126 22.0879 38.8131 21.8659 38.9563 21.5938C39.1139 21.3216 39.1927 20.985 39.1927 20.584C39.1783 19.8965 39.0136 19.3451 38.6985 18.9297C38.3977 18.5143 38.0182 18.1706 37.5598 17.8984C37.1015 17.6263 36.6074 17.3828 36.0774 17.168C35.5475 16.9531 35.0533 16.6953 34.595 16.3945C34.151 16.0938 33.7786 15.7142 33.4778 15.2559C33.177 14.7975 33.0266 14.1888 33.0266 13.4297C33.0266 12.8138 33.1197 12.291 33.3059 11.8613C33.4921 11.4316 33.7499 11.0879 34.0794 10.8301C34.4231 10.5579 34.817 10.3646 35.261 10.25C35.7193 10.1211 36.2135 10.0566 36.7434 10.0566C37.4309 10.0566 38.097 10.1497 38.7415 10.3359C39.386 10.5078 39.9374 10.7441 40.3958 11.0449ZM54.0203 16.9746L55.3523 16.8887C55.4813 17.4473 55.5457 17.9342 55.5457 18.3496C55.5457 18.9512 55.4598 19.6243 55.2879 20.3691C55.1303 21.0996 54.9012 21.7871 54.6004 22.4316C55.1733 22.5749 55.8393 22.6465 56.5984 22.6465L56.5125 23.9785C56.0112 23.9499 55.5457 23.8997 55.116 23.8281C54.7007 23.7565 54.2924 23.6634 53.8914 23.5488C53.3185 24.3366 52.6525 24.9167 51.8934 25.2891C51.1342 25.6758 50.1961 25.8691 49.0789 25.8691C48.5346 25.8691 48.0262 25.7975 47.5535 25.6543C47.0809 25.5111 46.6583 25.2819 46.2859 24.9668C45.9279 24.6517 45.6414 24.2435 45.4266 23.7422C45.226 23.2409 45.1258 22.6322 45.1258 21.916C45.1258 21.3574 45.226 20.9062 45.4266 20.5625C45.6271 20.2044 45.8706 19.8392 46.157 19.4668L46.8445 18.7793C46.3146 18.1204 45.9064 17.4258 45.6199 16.6953C45.3478 15.9648 45.2117 15.1914 45.2117 14.375C45.2117 13.8451 45.2762 13.3079 45.4051 12.7637C45.5483 12.2194 45.7632 11.7324 46.0496 11.3027C46.3504 10.873 46.7228 10.5221 47.1668 10.25C47.6108 9.97786 48.1336 9.8418 48.7352 9.8418C49.3367 9.8418 49.8452 9.92057 50.2605 10.0781C50.6759 10.2214 51.0197 10.4219 51.2918 10.6797C51.5639 10.9375 51.7573 11.2454 51.8719 11.6035C52.0008 11.9616 52.0652 12.3411 52.0652 12.7422C52.0652 13.5013 51.9292 14.2103 51.657 14.8691C51.3992 15.5137 51.0841 16.0938 50.7117 16.6094C50.3536 17.125 49.9813 17.569 49.5945 17.9414C49.2221 18.3138 48.9285 18.6003 48.7137 18.8008C49.3582 19.4453 50.0672 20.0326 50.8406 20.5625C51.6141 21.0781 52.3875 21.5221 53.1609 21.8945C53.4474 21.4648 53.6837 20.985 53.8699 20.4551C54.0561 19.9108 54.1492 19.252 54.1492 18.4785C54.1492 18.0202 54.1063 17.5189 54.0203 16.9746ZM47.8543 17.8125C48.1264 17.5404 48.4272 17.2467 48.7566 16.9316C49.0861 16.6165 49.3868 16.2656 49.659 15.8789C49.9311 15.4779 50.1603 15.0339 50.3465 14.5469C50.5327 14.0456 50.6258 13.4727 50.6258 12.8281C50.6258 12.3268 50.4969 11.9329 50.2391 11.6465C49.9813 11.3457 49.5229 11.1953 48.8641 11.1953C48.4344 11.1953 48.0691 11.2884 47.7684 11.4746C47.4819 11.6608 47.2456 11.9043 47.0594 12.2051C46.8875 12.4915 46.7586 12.821 46.6727 13.1934C46.5867 13.5658 46.5438 13.9453 46.5438 14.332C46.5438 15.0052 46.6512 15.6211 46.866 16.1797C47.0952 16.724 47.4246 17.2682 47.8543 17.8125ZM52.3016 22.9688C51.4852 22.6107 50.6759 22.1667 49.8738 21.6367C49.0717 21.0924 48.3484 20.4766 47.7039 19.7891C46.9591 20.5339 46.5867 21.2715 46.5867 22.002C46.5867 22.804 46.8374 23.4056 47.3387 23.8066C47.84 24.1934 48.4702 24.3867 49.2293 24.3867C49.6733 24.3867 50.1173 24.3151 50.5613 24.1719C51.0197 24.0286 51.4279 23.8066 51.7859 23.5059L52.0438 23.248L52.3016 22.9688Z" fill="white"/>
<path d="M9.58203 31.1191L8.63672 31.7207C8.40755 31.3913 8.0638 31.0977 7.60547 30.8398C7.14714 30.582 6.66016 30.4531 6.14453 30.4531C5.54297 30.4531 4.98438 30.6035 4.46875 30.9043C3.96745 31.1908 3.52344 31.6061 3.13672 32.1504C2.76432 32.6947 2.4707 33.3464 2.25586 34.1055C2.04102 34.8646 1.93359 35.7025 1.93359 36.6191C1.94792 37.4212 2.09115 38.1445 2.36328 38.7891C2.64974 39.4336 3.01497 39.985 3.45898 40.4434C3.90299 40.8874 4.39714 41.2311 4.94141 41.4746C5.48568 41.7181 6.02995 41.8398 6.57422 41.8398C7.29036 41.8398 7.9349 41.6823 8.50781 41.3672C9.08073 41.0378 9.59635 40.515 10.0547 39.7988L10.9141 41.0449C10.2695 41.8184 9.57487 42.3841 8.83008 42.7422C8.08529 43.1003 7.29753 43.2793 6.4668 43.2793C5.70768 43.2793 4.97005 43.1074 4.25391 42.7637C3.53776 42.4199 2.90039 41.9401 2.3418 41.3242C1.7832 40.694 1.33203 39.9421 0.988281 39.0684C0.658854 38.1803 0.494141 37.1992 0.494141 36.125C0.494141 35.3086 0.601562 34.485 0.816406 33.6543C1.03125 32.8236 1.36068 32.0716 1.80469 31.3984C2.26302 30.7253 2.8431 30.181 3.54492 29.7656C4.26107 29.3359 5.11328 29.1211 6.10156 29.1211C6.84635 29.1211 7.54102 29.2715 8.18555 29.5723C8.83008 29.873 9.29557 30.3887 9.58203 31.1191ZM12.8047 41.9043V29.2285H14.3086V41.3887H22.043V42.9355H13.6641L12.8047 41.9043ZM26.4688 36.1895H29.7773L27.9297 31.334L26.4688 36.1895ZM24.4492 43.2363L22.9883 42.8926L27.4141 28.8848H28.3594L33.5586 42.9785L32.1836 43.3652L30.1641 37.5215H26.125L24.4492 43.2363ZM37.6836 42.8066L34.8906 29.2715H36.5234L38.5 40.3145L40.6484 30.1309L42.5391 30.2598L44.6875 39.7988L47.4805 28.8418L48.9414 28.9707L45.375 43.2363H43.8711L41.5078 32.709L39.3164 42.8066H37.6836ZM58.1367 30.0449L57.5352 31.334C57.4635 31.248 57.3275 31.1549 57.127 31.0547C56.9264 30.9401 56.6829 30.8398 56.3965 30.7539C56.1243 30.668 55.8236 30.5964 55.4941 30.5391C55.1647 30.4674 54.8424 30.4316 54.5273 30.4316C54.2122 30.4316 53.9115 30.4674 53.625 30.5391C53.3529 30.5964 53.1094 30.6966 52.8945 30.8398C52.6797 30.9831 52.5078 31.1764 52.3789 31.4199C52.2643 31.6634 52.207 31.957 52.207 32.3008C52.207 32.7591 52.3789 33.2174 52.7227 33.6758C53.0807 34.1198 53.625 34.4707 54.3555 34.7285C55.3008 35.1009 56.0384 35.4948 56.5684 35.9102C57.1126 36.3255 57.5137 36.7409 57.7715 37.1562C58.0436 37.5716 58.2155 37.9798 58.2871 38.3809C58.3587 38.7819 58.3945 39.1543 58.3945 39.498C58.3516 40.6868 57.972 41.6107 57.2559 42.2695C56.5397 42.9284 55.4798 43.2578 54.0762 43.2578C53.5033 43.2578 52.873 43.1934 52.1855 43.0645C51.5124 42.9499 50.7747 42.7637 49.9727 42.5059L50.4453 41.002C50.8893 41.1738 51.4408 41.3385 52.0996 41.4961C52.7728 41.6393 53.4388 41.7109 54.0977 41.7109C54.4844 41.7109 54.8496 41.6751 55.1934 41.6035C55.5371 41.5319 55.8379 41.4173 56.0957 41.2598C56.3535 41.0879 56.554 40.8659 56.6973 40.5938C56.8548 40.3216 56.9336 39.985 56.9336 39.584C56.9193 38.8965 56.7546 38.3451 56.4395 37.9297C56.1387 37.5143 55.7591 37.1706 55.3008 36.8984C54.8424 36.6263 54.3483 36.3828 53.8184 36.168C53.2884 35.9531 52.7943 35.6953 52.3359 35.3945C51.8919 35.0938 51.5195 34.7142 51.2188 34.2559C50.918 33.7975 50.7676 33.1888 50.7676 32.4297C50.7676 31.8138 50.8607 31.291 51.0469 30.8613C51.2331 30.4316 51.4909 30.0879 51.8203 29.8301C52.1641 29.5579 52.5579 29.3646 53.002 29.25C53.4603 29.1211 53.9544 29.0566 54.4844 29.0566C55.1719 29.0566 55.8379 29.1497 56.4824 29.3359C57.127 29.5078 57.6784 29.7441 58.1367 30.0449Z" fill="white"/>
<path d="M32 7.5L33.9734 3.9479C34.3019 3.35662 34.907 2.97144 35.5817 2.92409L60.86 1.15018C62.0168 1.06899 63 1.98557 63 3.14527V48.5342C63 49.6253 62.1254 50.5151 61.0345 50.5339L34.4999 50.9914C34.2252 50.9961 34 50.7747 34 50.5V50.5V47" stroke="#E39D3B" stroke-width="2"/>
</svg>
